{"asset":{"generator":"Khronos glTF Blender I/O v5.1.18","version":"2.0"},"extensionsUsed":["KHR_materials_transmission","KHR_materials_specular","KHR_materials_ior","KHR_texture_transform"],"extensionsRequired":["KHR_texture_transform"],"scene":0,"scenes":[{"name":"Scene","nodes":[0,1,2,3,4,5,6,7,9,11,12,13,14,15]}],"nodes":[{"mesh":0,"name":"Тумба","scale":[0.25,0.2750000059604645,0.5249999761581421],"translation":[0,0.2750000059604645,0]},{"mesh":1,"name":"Полка 2","scale":[0.23749999701976776,0.0035000001080334187,0.5149999856948853],"translation":[0,1.309999942779541,0]},{"mesh":2,"name":"Полка 1","scale":[0.23749999701976776,0.0035000001080334187,0.5149999856948853],"translation":[0,0.9300000071525574,0]},{"mesh":3,"name":"Полка 3","scale":[0.23749999701976776,0.0035000001080334187,0.5149999856948853],"translation":[0,1.6100000143051147,0]},{"mesh":4,"name":"Стенка 1","scale":[0.23999999463558197,0.7049999833106995,0.0035000001080334187],"translation":[0,1.2549999952316284,-0.5199999809265137]},{"mesh":5,"name":"Стенка 2","scale":[0.23999999463558197,0.7049999833106995,0.0035000001080334187],"translation":[0,1.2549999952316284,0.5199999809265137]},{"mesh":6,"name":"Верх","scale":[0.25,0.04500000178813934,0.5249999761581421],"translation":[0,2.005000114440918,0]},{"mesh":7,"name":"Стенка задняя","rotation":[0,0.7071068286895752,0,0.7071068286895752],"scale":[0.5149999856948853,0.7049999833106995,0.0035000001080334187],"translation":[0.24500000476837158,1.2549999952316284,0]},{"mesh":8,"name":"Model","rotation":[-0.4328043758869171,0.7224180102348328,-0.44983628392219543,0.29738858342170715],"scale":[0.03999999910593033,0.03999999910593033,0.03999999910593033],"translation":[-0.015591740608215332,0.050418734550476074,-0.007813066244125366]},{"children":[8],"name":"тигр","translation":[-0.06893779337406158,1.3349997997283936,0.286499947309494]},{"mesh":9,"name":"рыба","rotation":[0.3001667559146881,0.34463614225387573,0.011117279529571533,0.88938307762146],"scale":[0.05000000074505806,0.05000000074505806,0.05000000074505806],"translation":[-0.005862392485141754,0.09500002861022949,0.008332433179020882]},{"children":[10],"name":"Пустышка","translation":[-0.05158303305506706,1.3401755094528198,-0.03298814594745636]},{"mesh":10,"name":"чашка","rotation":[0,-0.7682216167449951,0,0.6401841640472412],"scale":[0.40000003576278687,0.4000000059604645,0.40000003576278687],"translation":[-0.07000000029802322,1.309999942779541,-0.25999999046325684]},{"mesh":11,"name":"тигр1","rotation":[0.5988625884056091,0,0,0.8008519411087036],"scale":[0.03999999910593033,0.03999999910593033,0.03999999910593033],"translation":[-0.11897295713424683,0.9445688724517822,-0.3456174433231354]},{"mesh":12,"name":"маяк","rotation":[0,0.9670745134353638,0,0.2544933557510376],"scale":[0.3999998867511749,0.4000000059604645,0.3999998867511749],"translation":[-0.019999999552965164,0.9300000071525574,-0.02000000700354576]},{"mesh":13,"name":"тигр2","rotation":[0,0.9486833214759827,0,0.3162277042865753],"scale":[0.29999998211860657,0.30000001192092896,0.29999998211860657],"translation":[-0.059999994933605194,0.9350000023841858,0.25999999046325684]}],"materials":[{"doubleSided":true,"extensions":{"KHR_materials_specular":{"specularFactor":0}},"name":"Material.001","pbrMetallicRoughness":{"baseColorTexture":{"extensions":{"KHR_texture_transform":{"offset":[-2.4999996423721282,1.0000001267630143],"rotation":1.5707963705062866,"scale":[3,2.8999996185302734]}},"index":0},"metallicFactor":0}},{"doubleSided":true,"extensions":{"KHR_materials_transmission":{"transmissionFactor":1},"KHR_materials_ior":{"ior":1.4500000476837158}},"name":"Material.007","pbrMetallicRoughness":{"baseColorFactor":[0.800000011920929,0.800000011920929,0.800000011920929,1],"metallicFactor":0,"roughnessFactor":0.2295454442501068}},{"doubleSided":true,"extensions":{"KHR_materials_specular":{"specularColorFactor":[2,2,2]}},"name":"material0","pbrMetallicRoughness":{"baseColorTexture":{"index":1},"roughnessFactor":0.5527864098548889}},{"doubleSided":true,"extensions":{"KHR_materials_specular":{"specularColorFactor":[2,2,2]}},"name":"material0.003","pbrMetallicRoughness":{"baseColorTexture":{"index":2},"roughnessFactor":0.5527864098548889}},{"doubleSided":true,"extensions":{"KHR_materials_specular":{"specularColorFactor":[2,2,2]}},"name":"material0.001","pbrMetallicRoughness":{"baseColorTexture":{"index":3},"roughnessFactor":0.5527864098548889}},{"doubleSided":true,"extensions":{"KHR_materials_specular":{"specularColorFactor":[2,2,2]}},"name":"material0.002","pbrMetallicRoughness":{"baseColorTexture":{"index":4},"roughnessFactor":0.5527864098548889}},{"doubleSided":true,"extensions":{"KHR_materials_specular":{"specularColorFactor":[2,2,2]}},"name":"material0.005","pbrMetallicRoughness":{"baseColorTexture":{"index":5},"roughnessFactor":0.5527864098548889}},{"doubleSided":true,"extensions":{"KHR_materials_specular":{"specularColorFactor":[2,2,2]}},"name":"material0.006","pbrMetallicRoughness":{"baseColorTexture":{"index":6},"roughnessFactor":0.5527864098548889}}],"meshes":[{"name":"Cube","primitives":[{"attributes":{"POSITION":0,"NORMAL":1,"TEXCOORD_0":2},"indices":3,"material":0}]},{"name":"Cube.001","primitives":[{"attributes":{"POSITION":4,"NORMAL":5,"TEXCOORD_0":6},"indices":7,"material":1}]},{"name":"Cube.002","primitives":[{"attributes":{"POSITION":8,"NORMAL":9,"TEXCOORD_0":10},"indices":7,"material":1}]},{"name":"Cube.004","primitives":[{"attributes":{"POSITION":11,"NORMAL":12,"TEXCOORD_0":13},"indices":7,"material":1}]},{"name":"Cube.005","primitives":[{"attributes":{"POSITION":14,"NORMAL":15,"TEXCOORD_0":16},"indices":7,"material":1}]},{"name":"Cube.006","primitives":[{"attributes":{"POSITION":17,"NORMAL":18,"TEXCOORD_0":19},"indices":7,"material":1}]},{"name":"Cube.007","primitives":[{"attributes":{"POSITION":20,"NORMAL":21,"TEXCOORD_0":22},"indices":7,"material":0}]},{"name":"Cube.008","primitives":[{"attributes":{"POSITION":23,"NORMAL":24,"TEXCOORD_0":25},"indices":7,"material":1}]},{"name":"Model","primitives":[{"attributes":{"POSITION":26,"NORMAL":27,"TEXCOORD_0":28,"COLOR_0":29,"COLOR_1":30},"indices":31,"material":2}]},{"name":"Model.003","primitives":[{"attributes":{"POSITION":32,"NORMAL":33,"TEXCOORD_0":34,"COLOR_0":35,"COLOR_1":36},"indices":37,"material":3}]},{"name":"Model.002","primitives":[{"attributes":{"POSITION":38,"NORMAL":39,"TEXCOORD_0":40,"COLOR_0":41,"COLOR_1":42},"indices":43,"material":4}]},{"name":"Model.004","primitives":[{"attributes":{"POSITION":44,"NORMAL":45,"TEXCOORD_0":46,"COLOR_0":47,"COLOR_1":48},"indices":49,"material":5}]},{"name":"Model.005","primitives":[{"attributes":{"POSITION":50,"NORMAL":51,"TEXCOORD_0":52,"COLOR_0":53,"COLOR_1":54},"indices":55,"material":6}]},{"name":"Model.006","primitives":[{"attributes":{"POSITION":56,"NORMAL":57,"TEXCOORD_0":58,"COLOR_0":59,"COLOR_1":60},"indices":61,"material":7}]}],"textures":[{"sampler":0,"source":0},{"sampler":0,"source":1},{"sampler":0,"source":2},{"sampler":0,"source":3},{"sampler":0,"source":4},{"sampler":0,"source":5},{"sampler":0,"source":6}],"images":[{"mimeType":"image/jpeg","name":"1673176681_grizly-club-p-besshovnaya-tekstura-dereva-4k-5","uri":"textures/texture-0.jpg"},{"mimeType":"image/jpeg","name":"тигр 1 меш","uri":"textures/texture-1.jpg"},{"mimeType":"image/png","name":"3рыб","uri":"textures/texture-2.png"},{"mimeType":"image/png","name":"texture0","uri":"textures/texture-3.png"},{"mimeType":"image/png","name":"texture0","uri":"textures/texture-4.png"},{"mimeType":"image/jpeg","name":"texture0","uri":"textures/texture-5.jpg"},{"mimeType":"image/png","name":"texture0","uri":"textures/texture-6.png"}],"accessors":[{"bufferView":0,"componentType":5126,"count":178,"max":[1,1,1],"min":[-1,-1,-1],"type":"VEC3"},{"bufferView":1,"componentType":5126,"count":178,"type":"VEC3"},{"bufferView":2,"componentType":5126,"count":178,"type":"VEC2"},{"bufferView":3,"componentType":5123,"count":384,"type":"SCALAR"},{"bufferView":4,"componentType":5126,"count":24,"max":[1,1,1],"min":[-1,-1,-1],"type":"VEC3"},{"bufferView":5,"componentType":5126,"count":24,"type":"VEC3"},{"bufferView":6,"componentType":5126,"count":24,"type":"VEC2"},{"bufferView":7,"componentType":5123,"count":36,"type":"SCALAR"},{"bufferView":8,"componentType":5126,"count":24,"max":[1,1,1],"min":[-1,-1,-1],"type":"VEC3"},{"bufferView":9,"componentType":5126,"count":24,"type":"VEC3"},{"bufferView":10,"componentType":5126,"count":24,"type":"VEC2"},{"bufferView":11,"componentType":5126,"count":24,"max":[1,1,1],"min":[-1,-1,-1],"type":"VEC3"},{"bufferView":12,"componentType":5126,"count":24,"type":"VEC3"},{"bufferView":13,"componentType":5126,"count":24,"type":"VEC2"},{"bufferView":14,"componentType":5126,"count":24,"max":[1,1,1],"min":[-1,-1,-1],"type":"VEC3"},{"bufferView":15,"componentType":5126,"count":24,"type":"VEC3"},{"bufferView":16,"componentType":5126,"count":24,"type":"VEC2"},{"bufferView":17,"componentType":5126,"count":24,"max":[1,1,1],"min":[-1,-1,-1],"type":"VEC3"},{"bufferView":18,"componentType":5126,"count":24,"type":"VEC3"},{"bufferView":19,"componentType":5126,"count":24,"type":"VEC2"},{"bufferView":20,"componentType":5126,"count":24,"max":[1,1,1],"min":[-1,-1,-1],"type":"VEC3"},{"bufferView":21,"componentType":5126,"count":24,"type":"VEC3"},{"bufferView":22,"componentType":5126,"count":24,"type":"VEC2"},{"bufferView":23,"componentType":5126,"count":24,"max":[1,1,1],"min":[-1,-1,-1],"type":"VEC3"},{"bufferView":24,"componentType":5126,"count":24,"type":"VEC3"},{"bufferView":25,"componentType":5126,"count":24,"type":"VEC2"},{"bufferView":26,"componentType":5126,"count":33367,"max":[1.8529126644134521,1.5838079452514648,1.28165602684021],"min":[-2.129852056503296,-1.8127446174621582,-1.271175503730774],"type":"VEC3"},{"bufferView":27,"componentType":5126,"count":33367,"type":"VEC3"},{"bufferView":28,"componentType":5126,"count":33367,"type":"VEC2"},{"bufferView":29,"componentType":5126,"count":33367,"type":"VEC3"},{"bufferView":30,"componentType":5123,"count":33367,"normalized":true,"type":"VEC4"},{"bufferView":31,"componentType":5123,"count":196269,"type":"SCALAR"},{"bufferView":32,"componentType":5126,"count":10553,"max":[0.7737722992897034,1.003853678703308,3.3749189376831055],"min":[-1.0227055549621582,-2.610464572906494,-0.44248637557029724],"type":"VEC3"},{"bufferView":33,"componentType":5126,"count":10553,"type":"VEC3"},{"bufferView":34,"componentType":5126,"count":10553,"type":"VEC2"},{"bufferView":35,"componentType":5126,"count":10553,"type":"VEC3"},{"bufferView":36,"componentType":5123,"count":10553,"normalized":true,"type":"VEC4"},{"bufferView":37,"componentType":5123,"count":58920,"type":"SCALAR"},{"bufferView":38,"componentType":5126,"count":41666,"max":[0.04329968988895416,0.2985840141773224,0.24588315188884735],"min":[-0.4337877333164215,0.025366686284542084,-0.2184710055589676],"type":"VEC3"},{"bufferView":39,"componentType":5126,"count":41666,"type":"VEC3"},{"bufferView":40,"componentType":5126,"count":41666,"type":"VEC2"},{"bufferView":41,"componentType":5126,"count":41666,"type":"VEC3"},{"bufferView":42,"componentType":5123,"count":41666,"normalized":true,"type":"VEC4"},{"bufferView":43,"componentType":5123,"count":240771,"type":"SCALAR"},{"bufferView":44,"componentType":5126,"count":47403,"max":[1.4476573467254639,3.8205041885375977,0.5618019104003906],"min":[-2.312671661376953,-1.0644702911376953,-6.907408714294434],"type":"VEC3"},{"bufferView":45,"componentType":5126,"count":47403,"type":"VEC3"},{"bufferView":46,"componentType":5126,"count":47403,"type":"VEC2"},{"bufferView":47,"componentType":5126,"count":47403,"type":"VEC3"},{"bufferView":48,"componentType":5123,"count":47403,"normalized":true,"type":"VEC4"},{"bufferView":49,"componentType":5123,"count":269130,"type":"SCALAR"},{"bufferView":50,"componentType":5126,"count":62389,"max":[0.18451792001724243,0.884470522403717,0.1648934930562973],"min":[-0.16144602000713348,0.0020465850830078125,-0.1705370396375656],"type":"VEC3"},{"bufferView":51,"componentType":5126,"count":62389,"type":"VEC3"},{"bufferView":52,"componentType":5126,"count":62389,"type":"VEC2"},{"bufferView":53,"componentType":5126,"count":62389,"type":"VEC3"},{"bufferView":54,"componentType":5123,"count":62389,"normalized":true,"type":"VEC4"},{"bufferView":55,"componentType":5123,"count":362085,"type":"SCALAR"},{"bufferView":56,"componentType":5126,"count":95102,"max":[0.1689070463180542,0.9948945045471191,0.33115121722221375],"min":[-0.5725694894790649,-0.03877776861190796,-0.5595181584358215],"type":"VEC3"},{"bufferView":57,"componentType":5126,"count":95102,"type":"VEC3"},{"bufferView":58,"componentType":5126,"count":95102,"type":"VEC2"},{"bufferView":59,"componentType":5126,"count":95102,"type":"VEC3"},{"bufferView":60,"componentType":5123,"count":95102,"normalized":true,"type":"VEC4"},{"bufferView":61,"componentType":5125,"count":547539,"type":"SCALAR"}],"bufferViews":[{"buffer":0,"byteLength":2136,"byteOffset":0,"target":34962},{"buffer":0,"byteLength":2136,"byteOffset":2136,"target":34962},{"buffer":0,"byteLength":1424,"byteOffset":4272,"target":34962},{"buffer":0,"byteLength":768,"byteOffset":5696,"target":34963},{"buffer":0,"byteLength":288,"byteOffset":6464,"target":34962},{"buffer":0,"byteLength":288,"byteOffset":6752,"target":34962},{"buffer":0,"byteLength":192,"byteOffset":7040,"target":34962},{"buffer":0,"byteLength":72,"byteOffset":7232,"target":34963},{"buffer":0,"byteLength":288,"byteOffset":7304,"target":34962},{"buffer":0,"byteLength":288,"byteOffset":7592,"target":34962},{"buffer":0,"byteLength":192,"byteOffset":7880,"target":34962},{"buffer":0,"byteLength":288,"byteOffset":8072,"target":34962},{"buffer":0,"byteLength":288,"byteOffset":8360,"target":34962},{"buffer":0,"byteLength":192,"byteOffset":8648,"target":34962},{"buffer":0,"byteLength":288,"byteOffset":8840,"target":34962},{"buffer":0,"byteLength":288,"byteOffset":9128,"target":34962},{"buffer":0,"byteLength":192,"byteOffset":9416,"target":34962},{"buffer":0,"byteLength":288,"byteOffset":9608,"target":34962},{"buffer":0,"byteLength":288,"byteOffset":9896,"target":34962},{"buffer":0,"byteLength":192,"byteOffset":10184,"target":34962},{"buffer":0,"byteLength":288,"byteOffset":10376,"target":34962},{"buffer":0,"byteLength":288,"byteOffset":10664,"target":34962},{"buffer":0,"byteLength":192,"byteOffset":10952,"target":34962},{"buffer":0,"byteLength":288,"byteOffset":11144,"target":34962},{"buffer":0,"byteLength":288,"byteOffset":11432,"target":34962},{"buffer":0,"byteLength":192,"byteOffset":11720,"target":34962},{"buffer":0,"byteLength":400404,"byteOffset":11912,"target":34962},{"buffer":0,"byteLength":400404,"byteOffset":412316,"target":34962},{"buffer":0,"byteLength":266936,"byteOffset":812720,"target":34962},{"buffer":0,"byteLength":400404,"byteOffset":1079656,"target":34962},{"buffer":0,"byteLength":266936,"byteOffset":1480060,"target":34962},{"buffer":0,"byteLength":392538,"byteOffset":1746996,"target":34963},{"buffer":0,"byteLength":126636,"byteOffset":2139536,"target":34962},{"buffer":0,"byteLength":126636,"byteOffset":2266172,"target":34962},{"buffer":0,"byteLength":84424,"byteOffset":2392808,"target":34962},{"buffer":0,"byteLength":126636,"byteOffset":2477232,"target":34962},{"buffer":0,"byteLength":84424,"byteOffset":2603868,"target":34962},{"buffer":0,"byteLength":117840,"byteOffset":2688292,"target":34963},{"buffer":0,"byteLength":499992,"byteOffset":2806132,"target":34962},{"buffer":0,"byteLength":499992,"byteOffset":3306124,"target":34962},{"buffer":0,"byteLength":333328,"byteOffset":3806116,"target":34962},{"buffer":0,"byteLength":499992,"byteOffset":4139444,"target":34962},{"buffer":0,"byteLength":333328,"byteOffset":4639436,"target":34962},{"buffer":0,"byteLength":481542,"byteOffset":4972764,"target":34963},{"buffer":0,"byteLength":568836,"byteOffset":5454308,"target":34962},{"buffer":0,"byteLength":568836,"byteOffset":6023144,"target":34962},{"buffer":0,"byteLength":379224,"byteOffset":6591980,"target":34962},{"buffer":0,"byteLength":568836,"byteOffset":6971204,"target":34962},{"buffer":0,"byteLength":379224,"byteOffset":7540040,"target":34962},{"buffer":0,"byteLength":538260,"byteOffset":7919264,"target":34963},{"buffer":0,"byteLength":748668,"byteOffset":8457524,"target":34962},{"buffer":0,"byteLength":748668,"byteOffset":9206192,"target":34962},{"buffer":0,"byteLength":499112,"byteOffset":9954860,"target":34962},{"buffer":0,"byteLength":748668,"byteOffset":10453972,"target":34962},{"buffer":0,"byteLength":499112,"byteOffset":11202640,"target":34962},{"buffer":0,"byteLength":724170,"byteOffset":11701752,"target":34963},{"buffer":0,"byteLength":1141224,"byteOffset":12425924,"target":34962},{"buffer":0,"byteLength":1141224,"byteOffset":13567148,"target":34962},{"buffer":0,"byteLength":760816,"byteOffset":14708372,"target":34962},{"buffer":0,"byteLength":1141224,"byteOffset":15469188,"target":34962},{"buffer":0,"byteLength":760816,"byteOffset":16610412,"target":34962},{"buffer":0,"byteLength":2190156,"byteOffset":17371228,"target":34963}],"samplers":[{"magFilter":9729,"minFilter":9987}],"buffers":[{"uri":"scene.bin","byteLength":19561384}]}